<?xml version="1.0" encoding="UTF-8" standalone="no"?>
<svg width="18px" height="35px" viewBox="0 0 18 35" version="1.1" xmlns="http://www.w3.org/2000/svg" xmlns:xlink="http://www.w3.org/1999/xlink">
    <!-- Generator: Sketch 3.6.1 (26313) - http://www.bohemiancoding.com/sketch -->
    <title>iPhone Vector</title>
    <desc>Created with Sketch.</desc>
    <defs></defs>
    <g id="Website" stroke="none" stroke-width="1" fill="none" fill-rule="evenodd">
        <g id="Mobile-Portrait" transform="translate(-57.000000, -442.000000)" fill="#FC551F">
            <g id="Apple-App-Store" transform="translate(43.000000, 432.000000)">
                <path d="M16.5789611,10 C15.1546402,10 14,11.2618231 14,12.8244263 L14,42.0505737 C14,43.6104613 15.153363,44.875 16.5789611,44.875 L29.4210389,44.875 C30.8453598,44.875 32,43.6131769 32,42.0505737 L32,12.8244263 C32,11.2645387 30.846637,10 29.4210389,10 L16.5789611,10 L16.5789611,10 Z M15.6875,14.5737705 L15.6875,40.3012295 L30.3125,40.3012295 L30.3125,14.5737705 L15.6875,14.5737705 L15.6875,14.5737705 Z M23,43.7315574 C23.6213203,43.7315574 24.125,43.2196207 24.125,42.5881148 C24.125,41.9566088 23.6213203,41.4446721 23,41.4446721 C22.3786797,41.4446721 21.875,41.9566088 21.875,42.5881148 C21.875,43.2196207 22.3786797,43.7315574 23,43.7315574 L23,43.7315574 Z M20.75,12.2868852 C20.75,12.6026382 20.9433594,12.8586066 21.1979289,12.8586066 L24.8020711,12.8586066 C25.0494554,12.8586066 25.25,12.5934038 25.25,12.2868852 C25.25,11.9711323 25.0566406,11.7151639 24.8020711,11.7151639 L21.1979289,11.7151639 C20.9505446,11.7151639 20.75,11.9803667 20.75,12.2868852 Z" id="iPhone-Vector"></path>
            </g>
        </g>
    </g>
</svg>